<svg xmlns="http://www.w3.org/2000/svg" width="1200" height="427.609" viewBox="153.797 214.163 841.098 293.987" fill="#ffcd60" xmlns:v="https://vecta.io/nano"><path d="M451.566 507.443q-.371.449-1.079.449-.708 0-1.077-.449-.369-.449-.371-1.095v-20.591q0-.676.371-1.109.371-.433 1.077-.435.707-.001 1.079.435.372.436.371 1.109v20.591q0 .643-.371 1.095m25.6.707q-5.469 0-8.848-3.281-3.379-3.281-3.379-8.847 0-5.535 3.363-8.784 3.363-3.249 8.928-3.249 3.861 0 6.016 1.159.837.483.837 1.223 0 .641-.387.997c-.251.233-.594.34-.933.289q-3.088-.967-5.341-.965-4.183 0-6.836 2.493-2.653 2.493-2.656 6.837.001 4.341 2.559 6.869 2.559 2.525 6.837 2.525 2.412 0 4.215-.837v-7.819q0-.676.371-1.111.371-.435 1.077-.435.707 0 1.077.435.371.435.371 1.111v8.493q0 1.255-1.256 1.833-2.573 1.061-6.016 1.061m23.187-.707q-.371.449-1.077.449-.708 0-1.077-.449a1.67 1.67 0 0 1-.371-1.095v-20.653q0-1.483 1.481-1.483h6.595q8.88 0 8.88 7.304 0 2.64-1.576 4.393-1.576 1.753-3.863 1.849v.065q2.704.128 4.119 2.348 1.417 2.221 1.417 6.177a1.67 1.67 0 0 1-.371 1.095q-.371.449-1.047.449-.707 0-1.093-.449-.385-.452-.385-1.095-.035-2.188-.468-3.619-.433-1.431-1.272-2.188a4.63 4.63 0 0 0-1.851-1.047q-1.013-.289-2.461-.289l-5.211-.032v7.173a1.67 1.67 0 0 1-.371 1.095m.371-20.72v9.941h5.277q2.895 0 4.456-1.448 1.561-1.447 1.561-3.7 0-4.793-5.985-4.793zm40.125 21.171h-11.132q-1.48 0-1.48-1.512v-20.688q0-1.48 1.48-1.48h11.068a1.28 1.28 0 0 1 .949.371c.251.25.383.594.371.948q0 .58-.353.933-.355.353-.933.353h-9.749l.033 7.915h8.589c.348-.007.685.127.933.371q.385.371.387.98 0 .579-.371.932c-.246.235-.576.363-.916.355h-8.623l.033 7.883h9.684a1.28 1.28 0 0 1 .949.371q.371.368.371.98 0 .579-.371.932c-.247.235-.577.363-.917.355m16.125.256q-2.316 0-3.732-.965-.804-.513-.804-1.351 0-.483.321-.82.323-.337.869-.337.385 0 1.335.417a4.99 4.99 0 0 0 2.011.417q3.379 0 3.379-5.436v-14.285q0-.579.419-1.013a1.34 1.34 0 0 1 .997-.435 1.42 1.42 0 0 1 1.045.435c.279.263.436.629.435 1.012v14.419q0 7.947-6.275 7.947m23.091-.707q-.371.449-1.077.451-.708 0-1.077-.451a1.67 1.67 0 0 1-.371-1.095v-20.591q0-.676.371-1.109.371-.436 1.077-.435.707 0 1.077.435.371.433.371 1.109v20.591q0 .643-.371 1.095m17.38 0q-.369.449-1.077.451-.708 0-1.077-.451a1.67 1.67 0 0 1-.371-1.095v-20.269q0-.868.387-1.368.385-.499 1.095-.499.707 0 1.191.388.483.385 1.351 1.608l12.355 17.053h.064l-.064-17.504q0-.676.385-1.109.388-.436 1.095-.435.676 0 1.045.435.371.433.371 1.109v20.269q0 1.867-1.576 1.867-.708 0-1.319-.548-.611-.548-1.771-2.219l-11.711-16.121h-.064l.064 17.343a1.67 1.67 0 0 1-.371 1.095m33.788 0q-.371.449-1.077.451-.707 0-1.079-.451-.371-.452-.369-1.095v-20.591q0-.676.371-1.109.371-.436 1.077-.435.707 0 1.077.435.371.433.371 1.109v8.977h13.609v-8.977q0-.676.371-1.109.368-.436 1.076-.435.708 0 1.077.435.371.433.371 1.109v20.591q0 .643-.371 1.095-.371.449-1.077.451-.676 0-1.06-.451a1.63 1.63 0 0 1-.387-1.095v-8.976h-13.609v8.975a1.67 1.67 0 0 1-.371 1.095m49.44-1.481q.289.773-.081 1.351-.371.58-1.237.58-.579 0-.869-.307-.288-.305-.548-.949l-2.059-5.308h-10.585l-2.06 5.308q-.256.643-.548.949-.288.307-.837.307-.869 0-1.255-.58-.385-.577-.097-1.351l7.433-18.853q.641-1.64 1.157-2.268.515-.627 1.512-.627 1.06 0 1.544.627.484.627 1.159 2.397zm-14.381-7.239h8.557l-4.247-10.907h-.064zm-198.178-68.403c-8.213 7.523-14.407 11.301-18.547 11.301q-6.213 0-18.549-11.303c-8.225-7.535-13.307-13.669-15.272-18.376-1.247-2.991-1.896-10.525-1.896-22.604v-10.172c0-12.077.648-19.613 1.896-22.604 1.964-4.705 7.045-10.843 15.272-18.376q12.336-11.303 18.549-11.303 6.212 0 18.547 11.303c8.224 7.533 13.308 13.669 15.272 18.376 1.247 2.989 1.899 10.536 1.899 22.604v10.172c0 12.068-.652 19.613-1.899 22.604-1.963 4.707-7.056 10.851-15.272 18.376m498.603 21.771c-5.936-.016-11.857-3.159-11.857-9.453v-92.976h-16.32v-20.705h56.355v20.705h-16.319v92.976c0 6.295-5.921 9.436-11.857 9.453M641.697 391.69v6.212h-46.823c0 6.904.959 23.904 2.587 27.873 1.033 2.516 7.543 6.312 10.3 6.381 1.608.037 6.163-1.383 8.573-4.139q3.621-4.136 5.695-10.007l17.775 12.595c-3.107 5.752-7.873 10.776-14.236 15.012s-14.065 6.385-17.979 6.385-12.129-3.069-19.528-9.145-11.973-10.884-13.548-14.237-2.415-25.579-2.415-38.984.824-35.999 2.416-39.368c1.591-3.375 6.125-8.143 13.545-14.236s15.389-9.147 18.841-9.147 11.424 3.055 18.839 9.147 11.993 10.901 13.544 14.235 2.413 28.428 2.413 41.424m-24.653-35.211c-1.66-2.869-7.289-7.041-10.753-6.816-2.467.163-4.479 2.135-6.404 5.159-1.933 3.021-4.551 18.201-5.013 24.296h24.741c-.347-6.095-.708-19.413-2.572-22.636m297.81 42.359c-11.635-10.684-21.407-9.123-34.488-15.207-8.907-4.139-15.599-11.096-12.119-25.676 2.535-10.609 7.885-15.427 16.417-22.185 7.473-5.919 12.999-8.883 16.565-8.883 6.325 0 11.807 3.321 19.955 9.92s13.345 13.891 15.531 21.827l-14.043 10.289c-2.975 2.704-4.732.48-6.087-1.845-2-3.416-4.02-6.937-6.805-10.083-5.473-6.177-9.485-10.973-16.937-1.38-2.683 3.452-3.279 8.92 1.637 11.623 5.809 5.083 14.275 6.64 22.833 12.241 10.74 7.031 23.909 17.143 23.909 31.525q0 8.541-1.9 11.128c-5.969 12.939-23.4 28.163-38.456 29.44-17.517 1.492-34.923-10.172-37.288-30.805-.537-14.403 9.343-26.639 26.539-27.075 8.96-.225 21.716 4.696 22.548 14.372.2 5.017-2.173 11.115-7.983 11.399-5.836.28-23.057-18.783-21.715.905 1.391 12.968 12.873 14.585 21.076 10.599 11.401-5.548 20.479-20.416 10.807-32.128M530.52 326.891q4.747 0 15.183 9.057 10.44 9.059 13.029 12.769 2.587 3.711 2.588 12.164c0 5.636-.865 5.793-2.588 8.609q-2.587 4.224-9.493 10.781c13.755 11.352 17.257 12.924 17.257 30.735 0 15.412-12.995 26.837-25.22 34.577-12.084 7.647-25.817 9.809-39.939-.707-7.109-5.299-12.284-13.524-13.499-24.108-.537-14.403 9.316-26.591 26.54-27.075 9.008-.253 21.716 4.696 22.547 14.372.2 5.017-2.172 11.115-7.983 11.399-5.836.28-23.057-18.783-21.712.905 1.835 17.083 20.6 14.104 29.069 4.959 11.871-12.8 7.791-28.752-8.908-33.863-1.495-.449-2.463-.267-3.639-1.596-2.981-3.379-3.22-12.329-.025-15.032 1.328-1.127 2.991-.652 4.696-1.065 5.001-1.204 8.909-6.068 8.909-11.167q.001-3.625-3.449-8.196-3.449-4.572-6.385-4.571-2.931 0-9.143 2.239.517 6.732.517 13.807l-.107 23.757c-8.433-.313-11.3.739-19.004 2.113-2.909.524-4.6.385-4.701-4.217v-11.645c0-9.317-.665-15.879-1.985-19.672-7.236-20.763-12.667-10.465 14.408-29.335 19.721 16.441 5.696 0 23.037 0m-222.673 36.92v10.009h5.176q2.931-.001 6.125-3.193 3.195-3.192 4.832-6.037 1.639-2.851 3.363-16.396c1.151-9.027.199-15.441.199-19.237h23.812c0 4.484.892 11.503-.371 21.049q-1.896 14.323-3.449 17.601-2.587 5.693-13.116 15.356c10.337 8.88 19.225 28.2 20.565 41.827.791 8.031 2.56 24.403 5.203 29.485 4.131 7.956 9.044 14.489 23.291 14.489 13.427 0 19.392-6.529 24.025-16.467 2.215-4.747 2.368-10.783 1.975-18.145-.261-4.921 5.836-7.613 9.077-4.396l8.641 8.093c3.632 4.169 5.019 4.727 3.841 11.673-4.721 27.831-22.783 39.684-46.54 39.988-26.905.344-43.215-13.507-48.388-32.621-2.311-8.537-2.848-20.721-3.749-30.375-.769-8.272-7.843-31.992-17.957-31.992h-6.553v55.216h-23.812V374.16q-.001-13.977-1.985-19.411-1.984-5.436-8.369-13.375l20.708-14.493q5.52 3.62 9.487 13.373 3.972 9.749 3.972 23.551m76.884 88.28c-5.939-.016-11.859-3.159-11.859-9.453v-92.976h-16.319V328.95h56.353v20.705H396.59v92.976c0 6.295-5.921 9.436-11.857 9.453m474.752-76.89v6.212H817.73c0 6.901.889 15.365 2.588 19.385.575 1.36 1.611 2.788 3.107 4.228q2.243 2.156 4.659 2.155 2.416-.001 6.037-4.141 3.625-4.141 5.695-10.007l17.775 12.595c-3.107 5.753-7.865 10.768-14.236 15.012s-11.531 6.385-15.444 6.385-9.589-3.061-16.995-9.145-11.949-10.855-13.547-14.235-2.415-14.784-2.415-28.185q0-20.104 2.415-25.192 2.417-5.088 13.547-14.235 11.129-9.147 16.307-9.147 5.175 0 16.307 9.147 11.128 9.144 13.544 14.235 2.415 5.088 2.415 24.932m-23.896-21.653q-1.295-2.331-3.968-4.573-2.676-2.245-5.005-2.244-2.329 0-5.263 4.572-2.931 4.573-3.623 13.717h19.671q-.515-9.145-1.811-11.475M669.71 336.368c9.205-6.328 14.46-9.492 17.796-9.492s8.489 3.024 15.443 9.059 11.308 10.301 13.028 12.769 2.588 5.723 2.588 9.749q0 11.733-1.901 13.976-3.62 5.523-11.213 12.941c3.625 3.445 5.199 6.488 7.072 9.093 6.289 8.756 5.795 17.541 6.685 28.265.835 10.009-.401 22.908 3.187 32.16 3.333 8.595 9.997 13.305 21.665 13.305 18.98 0 23.457-19.151 22.74-34.613-.227-4.852 5.835-7.612 9.08-4.395l8.637 8.093c3.632 4.169 4.969 4.852 3.84 11.672-4.596 27.78-20.645 39.779-44.295 39.991-26.809.239-41.264-13.039-46.364-32.123-2.276-8.581-1.485-23.06-2.167-31.419-.904-11.025-3.209-17.733-4.288-20.015s-2.388-4.313-3.883-6.039h-12.82v50.384h-23.812v-75.576c0-9.317-1.135-15.651-1.984-19.411-3.853-17.083-7.555-17.344 12.336-27.867a25.37 25.37 0 0 1 8.629 9.491m4.832 29.505v13.284h6.22c1.611 0 3.689-1.268 6.215-3.795s4.176-4.695 4.917-6.469 1.119-3.655 1.119-5.609-.377-3.716-1.12-5.265-1.82-3.309-3.193-5.263c-1.372-1.945-2.531-2.929-3.449-2.929-3.107 0-6.511.747-11.225 2.239q.517 6.732.516 13.807m81.152 76.756c0 6.295-5.941 9.436-11.9 9.453-5.96-.016-11.901-3.159-11.901-9.453l-.003-61.745c0-18.373-1.904-31.272 12.503-44.472 7.516-6.884 14.571-9.536 18.251-9.536 6.753 0 15.583 5.448 21.083 9.447 3.615 2.637 4.956 3.712 6.608 5.747.655 5.728-8.028 22.991-13.948 17.76-6.441-6.437-8.963-9.661-12.88-9.661-1.491 0-3.249.984-5.176 2.849-4.847 4.703-2.629 19.075-2.629 26.139h29.612v20.888h-29.612l-.005 42.591zm43.691-12.32c4.908-7.164 6.771-4.419 11.548-.492 7.405 6.084 13.084 9.147 16.993 9.147 3.915 0 9.072-2.143 15.445-6.385 3.756-2.5 8.381-8.771 12.255-4.585 1.525 1.643 2.112 9.963.123 12.665-.741.993-6.073 4.932-7.305 5.801-7.825 5.512-13.759 7.489-18.685 7.633-10.36.303-25.979-4.544-31.923-13.18-1.569-2.276.121-8.52 1.548-10.603M259.328 440.5q-12.335 11.3-18.547 11.301-6.211 0-18.549-11.303-12.335-11.3-15.269-18.376-1.899-4.485-1.899-22.604V379.16q0-18.116 1.899-22.604 2.932-7.075 15.269-18.376 12.337-11.303 18.549-11.303 6.212 0 18.547 11.303 12.34 11.301 15.272 18.376 1.9 4.485 1.9 22.604v20.361q0 18.117-1.9 22.604-2.931 7.077-15.272 18.376M235 423.59q3.367 3.537 5.781 3.537 2.415 0 5.78-3.537 3.364-3.536 4.744-6.728 1.383-3.195 1.383-17.343v-20.361q0-14.149-1.383-17.341-1.379-3.193-4.744-6.729-3.364-3.539-5.78-3.539-2.416 0-5.781 3.539-3.364 3.536-4.745 6.728-1.38 3.193-1.38 17.343v20.361q0 14.148 1.38 17.341 1.383 3.193 4.745 6.729m208.789-10.189c2.233 2.349 4.172 3.539 5.783 3.539q2.413-.001 5.779-3.539c2.245-2.357 3.829-4.608 4.745-6.729s1.383-7.909 1.383-17.341v-10.172c0-9.432-.468-15.217-1.383-17.341s-2.5-4.372-4.745-6.729q-3.364-3.539-5.779-3.539-2.415 0-5.783 3.539-3.361 3.536-4.744 6.728c-.923 2.128-1.38 7.921-1.38 17.343v10.172c0 9.421.457 15.213 1.38 17.341s2.512 4.381 4.744 6.729m87.33-135.45c.804 4.176 2.659 7.976 5.48 11.319s5.057 4.772 6.621 4.772 3.289-1.369 4.997-4.651c4.497-8.637-5.385-14.439-12.883-15.668v-8.067q6.623-2.409 10.835-5.659 1.808-1.325 1.808-6.503 0-2.287-2.409-4.395-2.409-2.108-3.972-2.108-1.563 0-4.996 4.456-3.433 4.456-4.516 9.873l-13.004-7.467q1.685-7.705 9.151-15.109 7.463-7.408 13.607-7.407 3.972 0 12.159 6.321 8.189 6.321 9.272 9.573.843 2.287.844 9.089 0 6.805-1.325 8.489-2.288 2.768-5.9 4.695 5.66 4.456 7.044 6.683c2.599 4.183 2.133 12.511-.181 17.112-1.016 2.021-4.341 5.164-9.813 9.272s-9.532 6.2-12.099 6.2q-6.504 0-14.389-7.104-7.888-7.104-9.573-14.689zm94.532-19.432v18.051q.288 1.68 2.259 2.98l-4.325 3.701q-.624-.435-1.537-1.54c-.584-.701-1.1-1.457-1.54-2.257q-3.988 3.891-5.575 3.891-1.153 0-3.725-2.547-2.572-2.547-3.197-4.133-.625-1.587-.624-6.851 0-5.263.624-6.849.625-1.587 3.197-4.133 2.572-2.548 3.725-2.548 1.681 0 5.431 3.463l.577-2.884h3.097c.791.067 1.613.499 1.613 1.656m-6.681 7.097c-.213-.388-.689-.823-1.371-1.248s-1.055-.649-1.409-.649-.523.208-.924.627q-.601.623-.793 1.152c-.416.577-.625 1.269-.625 4.523s.267 3.615.627 4.213c.171.285.392.697.792 1.129s.571.649.924.649.729-.225 1.409-.649 1.145-.832 1.347-1.176.345-.699.359-4.092-.123-4.087-.335-4.477m-49.548-15.111l-3.151-16.173 36.053.821c4.171 0 7.316-.955 8.275 2.9.964 3.877 1.453 7.024 1.453 9.425-13.636 20.931-14.664 37.059-22.823 58.119-2.745 1.2-15.163 1.192-18.481-3.792 7.429-20.037 12.619-35.081 25.928-53.105z"/></svg>